<svg width="788" height="1379" viewBox="0 0 788 1379" class="keymap" xmlns="http://www.w3.org/2000/svg" xmlns:xlink="http://www.w3.org/1999/xlink">
<defs>/* start glyphs */
<svg id="mdi:apple-keyboard-command">
<svg xmlns="http://www.w3.org/2000/svg" id="mdi-apple-keyboard-command" viewBox="0 0 24 24"><path d="M6,2A4,4 0 0,1 10,6V8H14V6A4,4 0 0,1 18,2A4,4 0 0,1 22,6A4,4 0 0,1 18,10H16V14H18A4,4 0 0,1 22,18A4,4 0 0,1 18,22A4,4 0 0,1 14,18V16H10V18A4,4 0 0,1 6,22A4,4 0 0,1 2,18A4,4 0 0,1 6,14H8V10H6A4,4 0 0,1 2,6A4,4 0 0,1 6,2M16,18A2,2 0 0,0 18,20A2,2 0 0,0 20,18A2,2 0 0,0 18,16H16V18M14,10H10V14H14V10M6,16A2,2 0 0,0 4,18A2,2 0 0,0 6,20A2,2 0 0,0 8,18V16H6M8,6A2,2 0 0,0 6,4A2,2 0 0,0 4,6A2,2 0 0,0 6,8H8V6M18,8A2,2 0 0,0 20,6A2,2 0 0,0 18,4A2,2 0 0,0 16,6V8H18Z" /></svg>
</svg>
<svg id="mdi:apple-keyboard-control">
<svg xmlns="http://www.w3.org/2000/svg" id="mdi-apple-keyboard-control" viewBox="0 0 24 24"><path d="M19.78,11.78L18.36,13.19L12,6.83L5.64,13.19L4.22,11.78L12,4L19.78,11.78Z" /></svg>
</svg>
<svg id="mdi:apple-keyboard-option">
<svg xmlns="http://www.w3.org/2000/svg" id="mdi-apple-keyboard-option" viewBox="0 0 24 24"><path d="M3,4H9.11L16.15,18H21V20H14.88L7.84,6H3V4M14,4H21V6H14V4Z" /></svg>
</svg>
<svg id="mdi:apple-keyboard-shift">
<svg xmlns="http://www.w3.org/2000/svg" id="mdi-apple-keyboard-shift" viewBox="0 0 24 24"><path d="M15,18V12H17.17L12,6.83L6.83,12H9V18H15M12,4L22,14H17V20H7V14H2L12,4Z" /></svg>
</svg>
<svg id="mdi:keyboard-esc">
<svg xmlns="http://www.w3.org/2000/svg" id="mdi-keyboard-esc" viewBox="0 0 24 24"><path d="M1 7H7V9H3V11H7V13H3V15H7V17H1V7M11 7H15V9H11V11H13C14.11 11 15 11.9 15 13V15C15 16.11 14.11 17 13 17H9V15H13V13H11C9.9 13 9 12.11 9 11V9C9 7.9 9.9 7 11 7M19 7H21C22.11 7 23 7.9 23 9V10H21V9H19V15H21V14H23V15C23 16.11 22.11 17 21 17H19C17.9 17 17 16.11 17 15V9C17 7.9 17.9 7 19 7Z" /></svg>
</svg>
<svg id="tabler:arrow-bar-to-right">
<svg
  xmlns="http://www.w3.org/2000/svg"
 
 
  viewBox="0 0 24 24"
  fill="none"
  stroke="currentColor"
  stroke-width="2"
  stroke-linecap="round"
  stroke-linejoin="round"
  class="icon icon-tabler icons-tabler-outline icon-tabler-arrow-bar-to-right"
>
  <path stroke="none" d="M0 0h24v24H0z" fill="none"/>
  <path d="M14 12l-10 0" />
  <path d="M14 12l-4 4" />
  <path d="M14 12l-4 -4" />
  <path d="M20 4l0 16" />
</svg>
</svg>
<svg id="tabler:arrow-down">
<svg
  xmlns="http://www.w3.org/2000/svg"
 
 
  viewBox="0 0 24 24"
  fill="none"
  stroke="currentColor"
  stroke-width="2"
  stroke-linecap="round"
  stroke-linejoin="round"
  class="icon icon-tabler icons-tabler-outline icon-tabler-arrow-down"
>
  <path stroke="none" d="M0 0h24v24H0z" fill="none"/>
  <path d="M12 5l0 14" />
  <path d="M18 13l-6 6" />
  <path d="M6 13l6 6" />
</svg>
</svg>
<svg id="tabler:arrow-left">
<svg
  xmlns="http://www.w3.org/2000/svg"
 
 
  viewBox="0 0 24 24"
  fill="none"
  stroke="currentColor"
  stroke-width="2"
  stroke-linecap="round"
  stroke-linejoin="round"
  class="icon icon-tabler icons-tabler-outline icon-tabler-arrow-left"
>
  <path stroke="none" d="M0 0h24v24H0z" fill="none"/>
  <path d="M5 12l14 0" />
  <path d="M5 12l6 6" />
  <path d="M5 12l6 -6" />
</svg>
</svg>
<svg id="tabler:arrow-right">
<svg
  xmlns="http://www.w3.org/2000/svg"
 
 
  viewBox="0 0 24 24"
  fill="none"
  stroke="currentColor"
  stroke-width="2"
  stroke-linecap="round"
  stroke-linejoin="round"
  class="icon icon-tabler icons-tabler-outline icon-tabler-arrow-right"
>
  <path stroke="none" d="M0 0h24v24H0z" fill="none"/>
  <path d="M5 12l14 0" />
  <path d="M13 18l6 -6" />
  <path d="M13 6l6 6" />
</svg>
</svg>
<svg id="tabler:backspace">
<svg
  xmlns="http://www.w3.org/2000/svg"
 
 
  viewBox="0 0 24 24"
  fill="none"
  stroke="currentColor"
  stroke-width="2"
  stroke-linecap="round"
  stroke-linejoin="round"
  class="icon icon-tabler icons-tabler-outline icon-tabler-backspace"
>
  <path stroke="none" d="M0 0h24v24H0z" fill="none"/>
  <path d="M20 6a1 1 0 0 1 1 1v10a1 1 0 0 1 -1 1h-11l-5 -5a1.5 1.5 0 0 1 0 -2l5 -5z" />
  <path d="M12 10l4 4m0 -4l-4 4" />
</svg>
</svg>
<svg id="tabler:bluetooth">
<svg
  xmlns="http://www.w3.org/2000/svg"
 
 
  viewBox="0 0 24 24"
  fill="none"
  stroke="currentColor"
  stroke-width="2"
  stroke-linecap="round"
  stroke-linejoin="round"
  class="icon icon-tabler icons-tabler-outline icon-tabler-bluetooth"
>
  <path stroke="none" d="M0 0h24v24H0z" fill="none"/>
  <path d="M7 8l10 8l-5 4l0 -16l5 4l-10 8" />
</svg>
</svg>
<svg id="tabler:bluetooth-x">
<svg
  xmlns="http://www.w3.org/2000/svg"
 
 
  viewBox="0 0 24 24"
  fill="none"
  stroke="currentColor"
  stroke-width="2"
  stroke-linecap="round"
  stroke-linejoin="round"
  class="icon icon-tabler icons-tabler-outline icon-tabler-bluetooth-x"
>
  <path stroke="none" d="M0 0h24v24H0z" fill="none"/>
  <path d="M7 8l10 8l-5 4v-16l1 .802m0 6.396l-6 4.802" />
  <path d="M16 6l4 4" />
  <path d="M20 6l-4 4" />
</svg>
</svg>
<svg id="tabler:brightness-down">
<svg
  xmlns="http://www.w3.org/2000/svg"
 
 
  viewBox="0 0 24 24"
  fill="none"
  stroke="currentColor"
  stroke-width="2"
  stroke-linecap="round"
  stroke-linejoin="round"
  class="icon icon-tabler icons-tabler-outline icon-tabler-brightness-down"
>
  <path stroke="none" d="M0 0h24v24H0z" fill="none"/>
  <path d="M12 12m-3 0a3 3 0 1 0 6 0a3 3 0 1 0 -6 0" />
  <path d="M12 5l0 .01" />
  <path d="M17 7l0 .01" />
  <path d="M19 12l0 .01" />
  <path d="M17 17l0 .01" />
  <path d="M12 19l0 .01" />
  <path d="M7 17l0 .01" />
  <path d="M5 12l0 .01" />
  <path d="M7 7l0 .01" />
</svg>
</svg>
<svg id="tabler:brightness-up">
<svg
  xmlns="http://www.w3.org/2000/svg"
 
 
  viewBox="0 0 24 24"
  fill="none"
  stroke="currentColor"
  stroke-width="2"
  stroke-linecap="round"
  stroke-linejoin="round"
  class="icon icon-tabler icons-tabler-outline icon-tabler-brightness-up"
>
  <path stroke="none" d="M0 0h24v24H0z" fill="none"/>
  <path d="M12 12m-3 0a3 3 0 1 0 6 0a3 3 0 1 0 -6 0" />
  <path d="M12 5l0 -2" />
  <path d="M17 7l1.4 -1.4" />
  <path d="M19 12l2 0" />
  <path d="M17 17l1.4 1.4" />
  <path d="M12 19l0 2" />
  <path d="M7 17l-1.4 1.4" />
  <path d="M6 12l-2 0" />
  <path d="M7 7l-1.4 -1.4" />
</svg>
</svg>
<svg id="tabler:corner-down-left">
<svg
  xmlns="http://www.w3.org/2000/svg"
 
 
  viewBox="0 0 24 24"
  fill="none"
  stroke="currentColor"
  stroke-width="2"
  stroke-linecap="round"
  stroke-linejoin="round"
  class="icon icon-tabler icons-tabler-outline icon-tabler-corner-down-left"
>
  <path stroke="none" d="M0 0h24v24H0z" fill="none"/>
  <path d="M18 6v6a3 3 0 0 1 -3 3h-10l4 -4m0 8l-4 -4" />
</svg>
</svg>
<svg id="tabler:player-play">
<svg
  xmlns="http://www.w3.org/2000/svg"
 
 
  viewBox="0 0 24 24"
  fill="none"
  stroke="currentColor"
  stroke-width="2"
  stroke-linecap="round"
  stroke-linejoin="round"
  class="icon icon-tabler icons-tabler-outline icon-tabler-player-play"
>
  <path stroke="none" d="M0 0h24v24H0z" fill="none"/>
  <path d="M7 4v16l13 -8z" />
</svg>
</svg>
<svg id="tabler:player-skip-back">
<svg
  xmlns="http://www.w3.org/2000/svg"
 
 
  viewBox="0 0 24 24"
  fill="none"
  stroke="currentColor"
  stroke-width="2"
  stroke-linecap="round"
  stroke-linejoin="round"
  class="icon icon-tabler icons-tabler-outline icon-tabler-player-skip-back"
>
  <path stroke="none" d="M0 0h24v24H0z" fill="none"/>
  <path d="M20 5v14l-12 -7z" />
  <path d="M4 5l0 14" />
</svg>
</svg>
<svg id="tabler:player-skip-forward">
<svg
  xmlns="http://www.w3.org/2000/svg"
 
 
  viewBox="0 0 24 24"
  fill="none"
  stroke="currentColor"
  stroke-width="2"
  stroke-linecap="round"
  stroke-linejoin="round"
  class="icon icon-tabler icons-tabler-outline icon-tabler-player-skip-forward"
>
  <path stroke="none" d="M0 0h24v24H0z" fill="none"/>
  <path d="M4 5v14l12 -7z" />
  <path d="M20 5l0 14" />
</svg>
</svg>
<svg id="tabler:progress-down">
<svg
  xmlns="http://www.w3.org/2000/svg"
 
 
  viewBox="0 0 24 24"
  fill="none"
  stroke="currentColor"
  stroke-width="2"
  stroke-linecap="round"
  stroke-linejoin="round"
  class="icon icon-tabler icons-tabler-outline icon-tabler-progress-down"
>
  <path stroke="none" d="M0 0h24v24H0z" fill="none"/>
  <path d="M10 20.777a8.942 8.942 0 0 1 -2.48 -.969" />
  <path d="M14 3.223a9.003 9.003 0 0 1 0 17.554" />
  <path d="M4.579 17.093a8.961 8.961 0 0 1 -1.227 -2.592" />
  <path d="M3.124 10.5c.16 -.95 .468 -1.85 .9 -2.675l.169 -.305" />
  <path d="M6.907 4.579a8.954 8.954 0 0 1 3.093 -1.356" />
  <path d="M12 9v6" />
  <path d="M15 12l-3 3l-3 -3" />
</svg>
</svg>
<svg id="tabler:space">
<svg
  xmlns="http://www.w3.org/2000/svg"
 
 
  viewBox="0 0 24 24"
  fill="none"
  stroke="currentColor"
  stroke-width="2"
  stroke-linecap="round"
  stroke-linejoin="round"
  class="icon icon-tabler icons-tabler-outline icon-tabler-space"
>
  <path stroke="none" d="M0 0h24v24H0z" fill="none"/>
  <path d="M4 10v3a1 1 0 0 0 1 1h14a1 1 0 0 0 1 -1v-3" />
</svg>
</svg>
<svg id="tabler:volume">
<svg
  xmlns="http://www.w3.org/2000/svg"
 
 
  viewBox="0 0 24 24"
  fill="none"
  stroke="currentColor"
  stroke-width="2"
  stroke-linecap="round"
  stroke-linejoin="round"
  class="icon icon-tabler icons-tabler-outline icon-tabler-volume"
>
  <path stroke="none" d="M0 0h24v24H0z" fill="none"/>
  <path d="M15 8a5 5 0 0 1 0 8" />
  <path d="M17.7 5a9 9 0 0 1 0 14" />
  <path d="M6 15h-2a1 1 0 0 1 -1 -1v-4a1 1 0 0 1 1 -1h2l3.5 -4.5a.8 .8 0 0 1 1.5 .5v14a.8 .8 0 0 1 -1.5 .5l-3.5 -4.5" />
</svg>
</svg>
<svg id="tabler:volume-2">
<svg
  xmlns="http://www.w3.org/2000/svg"
 
 
  viewBox="0 0 24 24"
  fill="none"
  stroke="currentColor"
  stroke-width="2"
  stroke-linecap="round"
  stroke-linejoin="round"
  class="icon icon-tabler icons-tabler-outline icon-tabler-volume-2"
>
  <path stroke="none" d="M0 0h24v24H0z" fill="none"/>
  <path d="M15 8a5 5 0 0 1 0 8" />
  <path d="M6 15h-2a1 1 0 0 1 -1 -1v-4a1 1 0 0 1 1 -1h2l3.5 -4.5a.8 .8 0 0 1 1.5 .5v14a.8 .8 0 0 1 -1.5 .5l-3.5 -4.5" />
</svg>
</svg>
<svg id="tabler:volume-3">
<svg
  xmlns="http://www.w3.org/2000/svg"
 
 
  viewBox="0 0 24 24"
  fill="none"
  stroke="currentColor"
  stroke-width="2"
  stroke-linecap="round"
  stroke-linejoin="round"
  class="icon icon-tabler icons-tabler-outline icon-tabler-volume-3"
>
  <path stroke="none" d="M0 0h24v24H0z" fill="none"/>
  <path d="M6 15h-2a1 1 0 0 1 -1 -1v-4a1 1 0 0 1 1 -1h2l3.5 -4.5a.8 .8 0 0 1 1.5 .5v14a.8 .8 0 0 1 -1.5 .5l-3.5 -4.5" />
  <path d="M16 10l4 4m0 -4l-4 4" />
</svg>
</svg>
</defs>/* end glyphs */
<style>/* inherit to force styles through use tags */
svg path {
    fill: inherit;
}

/* font and background color specifications */
svg.keymap {
    font-family: SFMono-Regular,Consolas,Liberation Mono,Menlo,monospace;
    font-size: 14px;
    font-kerning: normal;
    text-rendering: optimizeLegibility;
    fill: #24292e;
}

/* default key styling */
rect.key {
    fill: #f6f8fa;
}

rect.key, rect.combo {
    stroke: #c9cccf;
    stroke-width: 1;
}

/* default key side styling, only used is draw_key_sides is set */
rect.side {
    filter: brightness(90%);
}

/* color accent for combo boxes */
rect.combo, rect.combo-separate {
    fill: #cdf;
}

/* color accent for held keys */
rect.held, rect.combo.held {
    fill: #fdd;
}

/* color accent for ghost (optional) keys */
rect.ghost, rect.combo.ghost {
    stroke-dasharray: 4, 4;
    stroke-width: 2;
}

text {
    text-anchor: middle;
    dominant-baseline: middle;
}

/* styling for layer labels */
text.label {
    font-weight: bold;
    text-anchor: start;
    stroke: white;
    stroke-width: 4;
    paint-order: stroke;
}

/* styling for optional footer */
text.footer {
    text-anchor: end;
    dominant-baseline: auto;
    stroke: white;
    stroke-width: 4;
    paint-order: stroke;
}

/* styling for combo tap, and key non-tap label text */
text.combo, text.hold, text.shifted, text.left, text.right {
    font-size: 11px;
}

text.hold {
    text-anchor: middle;
    dominant-baseline: auto;
}

text.shifted {
    text-anchor: middle;
    dominant-baseline: hanging;
}

text.left {
    text-anchor: start;
}

text.right {
    text-anchor: end;
}

text.layer-activator {
    text-decoration: underline;
}

/* styling for hold/shifted label text in combo box */
text.combo.hold, text.combo.shifted, text.combo.left, text.combo.right {
    font-size: 8px;
}

/* lighter symbol for transparent keys */
text.trans {
    fill: #7b7e81;
}

/* styling for combo dendrons */
path.combo {
    stroke-width: 1;
    stroke: gray;
    fill: none;
}

/* Start Tabler Icons Cleanup */
/* cannot use height/width with glyphs */
.icon-tabler > path {
    fill: inherit;
    stroke: inherit;
    stroke-width: 2;
}
/* hide tabler's default box */
.icon-tabler > path[stroke="none"][fill="none"] {
    visibility: hidden;
}
/* End Tabler Icons Cleanup */

g.trans {
  opacity: 0.4;
}
</style>
<g transform="translate(30, 0)" class="layer-base">
<text x="0" y="28" class="label" id="base">base:</text>
<g transform="translate(0, 56)">
<g transform="translate(28, 49)" class="key keypos-0">
<rect rx="6" ry="6" x="-26" y="-26" width="52" height="52" class="key"/>
<text x="0" y="0" class="key tap">Q</text>
</g>
<g transform="translate(84, 35)" class="key keypos-1">
<rect rx="6" ry="6" x="-26" y="-26" width="52" height="52" class="key"/>
<text x="0" y="0" class="key tap">W</text>
</g>
<g transform="translate(140, 28)" class="key keypos-2">
<rect rx="6" ry="6" x="-26" y="-26" width="52" height="52" class="key"/>
<text x="0" y="0" class="key tap">E</text>
</g>
<g transform="translate(196, 35)" class="key keypos-3">
<rect rx="6" ry="6" x="-26" y="-26" width="52" height="52" class="key"/>
<text x="0" y="0" class="key tap">R</text>
</g>
<g transform="translate(252, 42)" class="key keypos-4">
<rect rx="6" ry="6" x="-26" y="-26" width="52" height="52" class="key"/>
<text x="0" y="0" class="key tap">T</text>
</g>
<g transform="translate(476, 42)" class="key keypos-5">
<rect rx="6" ry="6" x="-26" y="-26" width="52" height="52" class="key"/>
<text x="0" y="0" class="key tap">Y</text>
</g>
<g transform="translate(532, 35)" class="key keypos-6">
<rect rx="6" ry="6" x="-26" y="-26" width="52" height="52" class="key"/>
<text x="0" y="0" class="key tap">U</text>
</g>
<g transform="translate(588, 28)" class="key keypos-7">
<rect rx="6" ry="6" x="-26" y="-26" width="52" height="52" class="key"/>
<text x="0" y="0" class="key tap">I</text>
</g>
<g transform="translate(644, 35)" class="key keypos-8">
<rect rx="6" ry="6" x="-26" y="-26" width="52" height="52" class="key"/>
<text x="0" y="0" class="key tap">O</text>
</g>
<g transform="translate(700, 49)" class="key keypos-9">
<rect rx="6" ry="6" x="-26" y="-26" width="52" height="52" class="key"/>
<text x="0" y="0" class="key tap">P</text>
</g>
<g transform="translate(28, 105)" class="key keypos-10">
<rect rx="6" ry="6" x="-26" y="-26" width="52" height="52" class="key"/>
<text x="0" y="0" class="key tap">A</text>
</g>
<g transform="translate(84, 91)" class="key keypos-11">
<rect rx="6" ry="6" x="-26" y="-26" width="52" height="52" class="key"/>
<text x="0" y="0" class="key tap">S</text>
</g>
<g transform="translate(140, 84)" class="key keypos-12">
<rect rx="6" ry="6" x="-26" y="-26" width="52" height="52" class="key"/>
<text x="0" y="0" class="key tap">D</text>
<use href="#mdi:apple-keyboard-option" xlink:href="#mdi:apple-keyboard-option" x="-6" y="12" height="12" width="12.0" class="key hold glyph mdi:apple-keyboard-option"/>
</g>
<g transform="translate(196, 91)" class="key keypos-13">
<rect rx="6" ry="6" x="-26" y="-26" width="52" height="52" class="key"/>
<text x="0" y="0" class="key tap">F</text>
<use href="#mdi:apple-keyboard-command" xlink:href="#mdi:apple-keyboard-command" x="-6" y="12" height="12" width="12.0" class="key hold glyph mdi:apple-keyboard-command"/>
</g>
<g transform="translate(252, 98)" class="key keypos-14">
<rect rx="6" ry="6" x="-26" y="-26" width="52" height="52" class="key"/>
<text x="0" y="0" class="key tap">G</text>
</g>
<g transform="translate(476, 98)" class="key keypos-15">
<rect rx="6" ry="6" x="-26" y="-26" width="52" height="52" class="key"/>
<text x="0" y="0" class="key tap">H</text>
</g>
<g transform="translate(532, 91)" class="key keypos-16">
<rect rx="6" ry="6" x="-26" y="-26" width="52" height="52" class="key"/>
<text x="0" y="0" class="key tap">J</text>
<use href="#mdi:apple-keyboard-command" xlink:href="#mdi:apple-keyboard-command" x="-6" y="12" height="12" width="12.0" class="key hold glyph mdi:apple-keyboard-command"/>
</g>
<g transform="translate(588, 84)" class="key keypos-17">
<rect rx="6" ry="6" x="-26" y="-26" width="52" height="52" class="key"/>
<text x="0" y="0" class="key tap">K</text>
<use href="#mdi:apple-keyboard-option" xlink:href="#mdi:apple-keyboard-option" x="-6" y="12" height="12" width="12.0" class="key hold glyph mdi:apple-keyboard-option"/>
</g>
<g transform="translate(644, 91)" class="key keypos-18">
<rect rx="6" ry="6" x="-26" y="-26" width="52" height="52" class="key"/>
<text x="0" y="0" class="key tap">L</text>
</g>
<g transform="translate(700, 105)" class="key keypos-19">
<rect rx="6" ry="6" x="-26" y="-26" width="52" height="52" class="key"/>
<text x="0" y="0" class="key tap">&#x27;</text>
</g>
<g transform="translate(28, 161)" class="key keypos-20">
<rect rx="6" ry="6" x="-26" y="-26" width="52" height="52" class="key"/>
<text x="0" y="0" class="key tap">Z</text>
</g>
<g transform="translate(84, 147)" class="key keypos-21">
<rect rx="6" ry="6" x="-26" y="-26" width="52" height="52" class="key"/>
<text x="0" y="0" class="key tap">X</text>
</g>
<g transform="translate(140, 140)" class="key keypos-22">
<rect rx="6" ry="6" x="-26" y="-26" width="52" height="52" class="key"/>
<text x="0" y="0" class="key tap">C</text>
</g>
<g transform="translate(196, 147)" class="key keypos-23">
<rect rx="6" ry="6" x="-26" y="-26" width="52" height="52" class="key"/>
<text x="0" y="0" class="key tap">V</text>
</g>
<g transform="translate(252, 154)" class="key keypos-24">
<rect rx="6" ry="6" x="-26" y="-26" width="52" height="52" class="key"/>
<text x="0" y="0" class="key tap">B</text>
</g>
<g transform="translate(476, 154)" class="key keypos-25">
<rect rx="6" ry="6" x="-26" y="-26" width="52" height="52" class="key"/>
<text x="0" y="0" class="key tap">N</text>
</g>
<g transform="translate(532, 147)" class="key keypos-26">
<rect rx="6" ry="6" x="-26" y="-26" width="52" height="52" class="key"/>
<text x="0" y="0" class="key tap">M</text>
</g>
<g transform="translate(588, 140)" class="key keypos-27">
<rect rx="6" ry="6" x="-26" y="-26" width="52" height="52" class="key"/>
<text x="0" y="0" class="key tap">,</text>
</g>
<g transform="translate(644, 147)" class="key keypos-28">
<rect rx="6" ry="6" x="-26" y="-26" width="52" height="52" class="key"/>
<text x="0" y="0" class="key tap">.</text>
</g>
<g transform="translate(700, 161)" class="key keypos-29">
<rect rx="6" ry="6" x="-26" y="-26" width="52" height="52" class="key"/>
<text x="0" y="0" class="key tap">/</text>
</g>
<g transform="translate(168, 205)" class="key keypos-30">
<rect rx="6" ry="6" x="-26" y="-26" width="52" height="52" class="key"/>
<use href="#mdi:keyboard-esc" xlink:href="#mdi:keyboard-esc" x="-10" y="-10" height="20" width="20.0" class="key tap glyph mdi:keyboard-esc"/>
<use href="#mdi:apple-keyboard-control" xlink:href="#mdi:apple-keyboard-control" x="-6" y="12" height="12" width="12.0" class="key hold glyph mdi:apple-keyboard-control"/>
</g>
<g transform="translate(230, 213) rotate(15.0)" class="key keypos-31">
<rect rx="6" ry="6" x="-26" y="-26" width="52" height="52" class="key"/>
<use href="#mdi:apple-keyboard-shift" xlink:href="#mdi:apple-keyboard-shift" x="-10" y="-10" height="20" width="20.0" class="key tap glyph mdi:apple-keyboard-shift"/>
</g>
<g transform="translate(295, 224) rotate(30.0)" class="key keypos-32">
<rect rx="6" ry="6" x="-26" y="-40" width="52" height="80" class="key"/>
<use href="#tabler:arrow-bar-to-right" xlink:href="#tabler:arrow-bar-to-right" x="-10" y="-10" height="20" width="20.0" class="key tap glyph tabler:arrow-bar-to-right"/>
<a href="#sym">
<text x="0" y="38" class="key hold layer-activator">sym</text>
</a></g>
<g transform="translate(433, 224) rotate(-30.0)" class="key keypos-33">
<rect rx="6" ry="6" x="-26" y="-40" width="52" height="80" class="key"/>
<use href="#tabler:corner-down-left" xlink:href="#tabler:corner-down-left" x="-10" y="-10" height="20" width="20.0" class="key tap glyph tabler:corner-down-left"/>
<a href="#nav">
<text x="0" y="38" class="key hold layer-activator">nav</text>
</a></g>
<g transform="translate(498, 213) rotate(-15.0)" class="key keypos-34">
<rect rx="6" ry="6" x="-26" y="-26" width="52" height="52" class="key"/>
<use href="#tabler:space" xlink:href="#tabler:space" x="-10" y="-10" height="20" width="20.0" class="key tap glyph tabler:space"/>
</g>
<g transform="translate(560, 205)" class="key keypos-35">
<rect rx="6" ry="6" x="-26" y="-26" width="52" height="52" class="key"/>
<use href="#tabler:backspace" xlink:href="#tabler:backspace" x="-10" y="-10" height="20" width="20.0" class="key tap glyph tabler:backspace"/>
</g>
<g class="combo combopos-0">
<rect rx="6" ry="6" x="248" y="206" width="28" height="26" class="combo"/>
<use href="#tabler:space" xlink:href="#tabler:space" x="252" y="209" height="20" width="20.0" class="combo tap glyph tabler:space"/>
</g>
</g>
</g>
<g transform="translate(30, 331)" class="layer-sym">
<text x="0" y="28" class="label" id="sym">sym:</text>
<g transform="translate(0, 56)">
<g transform="translate(28, 49)" class="key keypos-0">
<rect rx="6" ry="6" x="-26" y="-26" width="52" height="52" class="key"/>
<text x="0" y="0" class="key tap">!</text>
</g>
<g transform="translate(84, 35)" class="key keypos-1">
<rect rx="6" ry="6" x="-26" y="-26" width="52" height="52" class="key"/>
<text x="0" y="0" class="key tap">@</text>
</g>
<g transform="translate(140, 28)" class="key keypos-2">
<rect rx="6" ry="6" x="-26" y="-26" width="52" height="52" class="key"/>
<text x="0" y="0" class="key tap">#</text>
</g>
<g transform="translate(196, 35)" class="key keypos-3">
<rect rx="6" ry="6" x="-26" y="-26" width="52" height="52" class="key"/>
<text x="0" y="0" class="key tap">$</text>
</g>
<g transform="translate(252, 42)" class="key keypos-4">
<rect rx="6" ry="6" x="-26" y="-26" width="52" height="52" class="key"/>
<text x="0" y="0" class="key tap">{</text>
</g>
<g transform="translate(476, 42)" class="key keypos-5">
<rect rx="6" ry="6" x="-26" y="-26" width="52" height="52" class="key"/>
<text x="0" y="0" class="key tap">}</text>
</g>
<g transform="translate(532, 35)" class="key keypos-6">
<rect rx="6" ry="6" x="-26" y="-26" width="52" height="52" class="key"/>
<text x="0" y="0" class="key tap">7</text>
</g>
<g transform="translate(588, 28)" class="key keypos-7">
<rect rx="6" ry="6" x="-26" y="-26" width="52" height="52" class="key"/>
<text x="0" y="0" class="key tap">8</text>
</g>
<g transform="translate(644, 35)" class="key keypos-8">
<rect rx="6" ry="6" x="-26" y="-26" width="52" height="52" class="key"/>
<text x="0" y="0" class="key tap">9</text>
</g>
<g transform="translate(700, 49)" class="key keypos-9">
<rect rx="6" ry="6" x="-26" y="-26" width="52" height="52" class="key"/>
<text x="0" y="0" class="key tap">|</text>
</g>
<g transform="translate(28, 105)" class="key keypos-10">
<rect rx="6" ry="6" x="-26" y="-26" width="52" height="52" class="key"/>
<text x="0" y="0" class="key tap">=</text>
<text x="0" y="24" class="key hold">+</text>
</g>
<g transform="translate(84, 91)" class="key keypos-11">
<rect rx="6" ry="6" x="-26" y="-26" width="52" height="52" class="key"/>
<text x="0" y="0" class="key tap">_</text>
</g>
<g transform="translate(140, 84)" class="key keypos-12">
<rect rx="6" ry="6" x="-26" y="-26" width="52" height="52" class="key"/>
<text x="0" y="0" class="key tap">-</text>
</g>
<g transform="translate(196, 91)" class="key keypos-13">
<rect rx="6" ry="6" x="-26" y="-26" width="52" height="52" class="key"/>
<text x="0" y="0" class="key tap">;</text>
</g>
<g transform="translate(252, 98)" class="key keypos-14">
<rect rx="6" ry="6" x="-26" y="-26" width="52" height="52" class="key"/>
<text x="0" y="0" class="key tap">(</text>
</g>
<g transform="translate(476, 98)" class="key keypos-15">
<rect rx="6" ry="6" x="-26" y="-26" width="52" height="52" class="key"/>
<text x="0" y="0" class="key tap">)</text>
</g>
<g transform="translate(532, 91)" class="key keypos-16">
<rect rx="6" ry="6" x="-26" y="-26" width="52" height="52" class="key"/>
<text x="0" y="0" class="key tap">4</text>
</g>
<g transform="translate(588, 84)" class="key keypos-17">
<rect rx="6" ry="6" x="-26" y="-26" width="52" height="52" class="key"/>
<text x="0" y="0" class="key tap">5</text>
</g>
<g transform="translate(644, 91)" class="key keypos-18">
<rect rx="6" ry="6" x="-26" y="-26" width="52" height="52" class="key"/>
<text x="0" y="0" class="key tap">6</text>
</g>
<g transform="translate(700, 105)" class="key keypos-19">
<rect rx="6" ry="6" x="-26" y="-26" width="52" height="52" class="key"/>
<text x="0" y="0" class="key tap">:</text>
</g>
<g transform="translate(28, 161)" class="key keypos-20">
<rect rx="6" ry="6" x="-26" y="-26" width="52" height="52" class="key"/>
<text x="0" y="0" class="key tap">%</text>
<text x="0" y="24" class="key hold">^</text>
</g>
<g transform="translate(84, 147)" class="key keypos-21">
<rect rx="6" ry="6" x="-26" y="-26" width="52" height="52" class="key"/>
<text x="0" y="0" class="key tap">`</text>
<text x="0" y="24" class="key hold">~</text>
</g>
<g transform="translate(140, 140)" class="key keypos-22">
<rect rx="6" ry="6" x="-26" y="-26" width="52" height="52" class="key"/>
<text x="0" y="0" class="key tap">&amp;</text>
</g>
<g transform="translate(196, 147)" class="key keypos-23">
<rect rx="6" ry="6" x="-26" y="-26" width="52" height="52" class="key"/>
<text x="0" y="0" class="key tap">*</text>
</g>
<g transform="translate(252, 154)" class="key keypos-24">
<rect rx="6" ry="6" x="-26" y="-26" width="52" height="52" class="key"/>
<text x="0" y="0" class="key tap">[</text>
</g>
<g transform="translate(476, 154)" class="key keypos-25">
<rect rx="6" ry="6" x="-26" y="-26" width="52" height="52" class="key"/>
<text x="0" y="0" class="key tap">]</text>
</g>
<g transform="translate(532, 147)" class="key keypos-26">
<rect rx="6" ry="6" x="-26" y="-26" width="52" height="52" class="key"/>
<text x="0" y="0" class="key tap">1</text>
</g>
<g transform="translate(588, 140)" class="key keypos-27">
<rect rx="6" ry="6" x="-26" y="-26" width="52" height="52" class="key"/>
<text x="0" y="0" class="key tap">2</text>
</g>
<g transform="translate(644, 147)" class="key keypos-28">
<rect rx="6" ry="6" x="-26" y="-26" width="52" height="52" class="key"/>
<text x="0" y="0" class="key tap">3</text>
</g>
<g transform="translate(700, 161)" class="key keypos-29">
<rect rx="6" ry="6" x="-26" y="-26" width="52" height="52" class="key"/>
<text x="0" y="0" class="key tap">\</text>
</g>
<g transform="translate(168, 205)" class="key trans keypos-30">
<rect rx="6" ry="6" x="-26" y="-26" width="52" height="52" class="key trans"/>
<text x="0" y="0" class="key trans tap">▽</text>
</g>
<g transform="translate(230, 213) rotate(15.0)" class="key trans keypos-31">
<rect rx="6" ry="6" x="-26" y="-26" width="52" height="52" class="key trans"/>
<text x="0" y="0" class="key trans tap">▽</text>
</g>
<g transform="translate(295, 224) rotate(30.0)" class="key held keypos-32">
<rect rx="6" ry="6" x="-26" y="-40" width="52" height="80" class="key held"/>
</g>
<g transform="translate(433, 224) rotate(-30.0)" class="key trans keypos-33">
<rect rx="6" ry="6" x="-26" y="-40" width="52" height="80" class="key trans"/>
<text x="0" y="0" class="key trans tap">▽</text>
</g>
<g transform="translate(498, 213) rotate(-15.0)" class="key keypos-34">
<rect rx="6" ry="6" x="-26" y="-26" width="52" height="52" class="key"/>
<text x="0" y="0" class="key tap">0</text>
</g>
<g transform="translate(560, 205)" class="key trans keypos-35">
<rect rx="6" ry="6" x="-26" y="-26" width="52" height="52" class="key trans"/>
<text x="0" y="0" class="key trans tap">▽</text>
</g>
<g class="combo combopos-0">
<rect rx="6" ry="6" x="248" y="206" width="28" height="26" class="combo"/>
<use href="#tabler:space" xlink:href="#tabler:space" x="252" y="209" height="20" width="20.0" class="combo tap glyph tabler:space"/>
</g>
</g>
</g>
<g transform="translate(30, 661)" class="layer-nav">
<text x="0" y="28" class="label" id="nav">nav:</text>
<g transform="translate(0, 56)">
<g transform="translate(28, 49)" class="key keypos-0">
<rect rx="6" ry="6" x="-26" y="-26" width="52" height="52" class="key"/>
<use href="#tabler:bluetooth" xlink:href="#tabler:bluetooth" x="-10" y="-10" height="20" width="20.0" class="key tap glyph tabler:bluetooth"/>
<text x="0" y="24" class="key hold">3</text>
</g>
<g transform="translate(84, 35)" class="key keypos-1">
<rect rx="6" ry="6" x="-26" y="-26" width="52" height="52" class="key"/>
<use href="#tabler:bluetooth" xlink:href="#tabler:bluetooth" x="-10" y="-10" height="20" width="20.0" class="key tap glyph tabler:bluetooth"/>
<text x="0" y="24" class="key hold">2</text>
</g>
<g transform="translate(140, 28)" class="key keypos-2">
<rect rx="6" ry="6" x="-26" y="-26" width="52" height="52" class="key"/>
<use href="#tabler:bluetooth" xlink:href="#tabler:bluetooth" x="-10" y="-10" height="20" width="20.0" class="key tap glyph tabler:bluetooth"/>
<text x="0" y="24" class="key hold">1</text>
</g>
<g transform="translate(196, 35)" class="key keypos-3">
<rect rx="6" ry="6" x="-26" y="-26" width="52" height="52" class="key"/>
<use href="#tabler:bluetooth" xlink:href="#tabler:bluetooth" x="-10" y="-10" height="20" width="20.0" class="key tap glyph tabler:bluetooth"/>
<text x="0" y="24" class="key hold">0</text>
</g>
<g transform="translate(252, 42)" class="key keypos-4">
<rect rx="6" ry="6" x="-26" y="-26" width="52" height="52" class="key"/>
<use href="#tabler:bluetooth-x" xlink:href="#tabler:bluetooth-x" x="-10" y="-10" height="20" width="20.0" class="key tap glyph tabler:bluetooth-x"/>
</g>
<g transform="translate(476, 42)" class="key keypos-5">
<rect rx="6" ry="6" x="-26" y="-26" width="52" height="52" class="key"/>
<text x="0" y="0" class="key tap">
<tspan x="0" dy="-0.6em">PG</tspan><tspan x="0" dy="1.2em">UP</tspan>
</text>
</g>
<g transform="translate(532, 35)" class="key keypos-6">
<rect rx="6" ry="6" x="-26" y="-26" width="52" height="52" class="key"/>
<text x="0" y="0" class="key tap">⌘⇧[</text>
</g>
<g transform="translate(588, 28)" class="key keypos-7">
<rect rx="6" ry="6" x="-26" y="-26" width="52" height="52" class="key"/>
<text x="0" y="0" class="key tap">
<tspan x="0" dy="-0.6em">UP</tspan><tspan x="0" dy="1.2em">ARROW</tspan>
</text>
</g>
<g transform="translate(644, 35)" class="key keypos-8">
<rect rx="6" ry="6" x="-26" y="-26" width="52" height="52" class="key"/>
<text x="0" y="0" class="key tap">⌘⇧]</text>
</g>
<g transform="translate(700, 49)" class="key keypos-9">
<rect rx="6" ry="6" x="-26" y="-26" width="52" height="52" class="key"/>
</g>
<g transform="translate(28, 105)" class="key keypos-10">
<rect rx="6" ry="6" x="-26" y="-26" width="52" height="52" class="key"/>
<use href="#mdi:apple-keyboard-command" xlink:href="#mdi:apple-keyboard-command" x="-10" y="-10" height="20" width="20.0" class="key tap glyph mdi:apple-keyboard-command"/>
<text x="0" y="24" class="key hold">sticky</text>
</g>
<g transform="translate(84, 91)" class="key keypos-11">
<rect rx="6" ry="6" x="-26" y="-26" width="52" height="52" class="key"/>
<use href="#tabler:volume-3" xlink:href="#tabler:volume-3" x="-10" y="-10" height="20" width="20.0" class="key tap glyph tabler:volume-3"/>
</g>
<g transform="translate(140, 84)" class="key keypos-12">
<rect rx="6" ry="6" x="-26" y="-26" width="52" height="52" class="key"/>
<use href="#tabler:volume-2" xlink:href="#tabler:volume-2" x="-10" y="-10" height="20" width="20.0" class="key tap glyph tabler:volume-2"/>
</g>
<g transform="translate(196, 91)" class="key keypos-13">
<rect rx="6" ry="6" x="-26" y="-26" width="52" height="52" class="key"/>
<use href="#tabler:volume" xlink:href="#tabler:volume" x="-10" y="-10" height="20" width="20.0" class="key tap glyph tabler:volume"/>
</g>
<g transform="translate(252, 98)" class="key keypos-14">
<rect rx="6" ry="6" x="-26" y="-26" width="52" height="52" class="key"/>
<use href="#tabler:brightness-up" xlink:href="#tabler:brightness-up" x="-10" y="-10" height="20" width="20.0" class="key tap glyph tabler:brightness-up"/>
</g>
<g transform="translate(476, 98)" class="key keypos-15">
<rect rx="6" ry="6" x="-26" y="-26" width="52" height="52" class="key"/>
<text x="0" y="0" class="key tap">
<tspan x="0" dy="-0.6em">PG</tspan><tspan x="0" dy="1.2em">DN</tspan>
</text>
</g>
<g transform="translate(532, 91)" class="key keypos-16">
<rect rx="6" ry="6" x="-26" y="-26" width="52" height="52" class="key"/>
<use href="#tabler:arrow-left" xlink:href="#tabler:arrow-left" x="-10" y="-10" height="20" width="20.0" class="key tap glyph tabler:arrow-left"/>
</g>
<g transform="translate(588, 84)" class="key keypos-17">
<rect rx="6" ry="6" x="-26" y="-26" width="52" height="52" class="key"/>
<use href="#tabler:arrow-down" xlink:href="#tabler:arrow-down" x="-10" y="-10" height="20" width="20.0" class="key tap glyph tabler:arrow-down"/>
</g>
<g transform="translate(644, 91)" class="key keypos-18">
<rect rx="6" ry="6" x="-26" y="-26" width="52" height="52" class="key"/>
<use href="#tabler:arrow-right" xlink:href="#tabler:arrow-right" x="-10" y="-10" height="20" width="20.0" class="key tap glyph tabler:arrow-right"/>
</g>
<g transform="translate(700, 105)" class="key keypos-19">
<rect rx="6" ry="6" x="-26" y="-26" width="52" height="52" class="key"/>
<use href="#mdi:apple-keyboard-command" xlink:href="#mdi:apple-keyboard-command" x="-10" y="-10" height="20" width="20.0" class="key tap glyph mdi:apple-keyboard-command"/>
<text x="0" y="24" class="key hold">sticky</text>
</g>
<g transform="translate(28, 161)" class="key keypos-20">
<rect rx="6" ry="6" x="-26" y="-26" width="52" height="52" class="key"/>
</g>
<g transform="translate(84, 147)" class="key keypos-21">
<rect rx="6" ry="6" x="-26" y="-26" width="52" height="52" class="key"/>
<use href="#tabler:player-skip-back" xlink:href="#tabler:player-skip-back" x="-10" y="-10" height="20" width="20.0" class="key tap glyph tabler:player-skip-back"/>
</g>
<g transform="translate(140, 140)" class="key keypos-22">
<rect rx="6" ry="6" x="-26" y="-26" width="52" height="52" class="key"/>
<use href="#tabler:player-play" xlink:href="#tabler:player-play" x="-10" y="-10" height="20" width="20.0" class="key tap glyph tabler:player-play"/>
</g>
<g transform="translate(196, 147)" class="key keypos-23">
<rect rx="6" ry="6" x="-26" y="-26" width="52" height="52" class="key"/>
<use href="#tabler:player-skip-forward" xlink:href="#tabler:player-skip-forward" x="-10" y="-10" height="20" width="20.0" class="key tap glyph tabler:player-skip-forward"/>
</g>
<g transform="translate(252, 154)" class="key keypos-24">
<rect rx="6" ry="6" x="-26" y="-26" width="52" height="52" class="key"/>
<use href="#tabler:brightness-down" xlink:href="#tabler:brightness-down" x="-10" y="-10" height="20" width="20.0" class="key tap glyph tabler:brightness-down"/>
</g>
<g transform="translate(476, 154)" class="key keypos-25">
<rect rx="6" ry="6" x="-26" y="-26" width="52" height="52" class="key"/>
</g>
<g transform="translate(532, 147)" class="key keypos-26">
<rect rx="6" ry="6" x="-26" y="-26" width="52" height="52" class="key"/>
<text x="0" y="0" class="key tap">HOME</text>
</g>
<g transform="translate(588, 140)" class="key keypos-27">
<rect rx="6" ry="6" x="-26" y="-26" width="52" height="52" class="key"/>
</g>
<g transform="translate(644, 147)" class="key keypos-28">
<rect rx="6" ry="6" x="-26" y="-26" width="52" height="52" class="key"/>
<text x="0" y="0" class="key tap">END</text>
</g>
<g transform="translate(700, 161)" class="key keypos-29">
<rect rx="6" ry="6" x="-26" y="-26" width="52" height="52" class="key"/>
</g>
<g transform="translate(168, 205)" class="key trans keypos-30">
<rect rx="6" ry="6" x="-26" y="-26" width="52" height="52" class="key trans"/>
<text x="0" y="0" class="key trans tap">▽</text>
</g>
<g transform="translate(230, 213) rotate(15.0)" class="key trans keypos-31">
<rect rx="6" ry="6" x="-26" y="-26" width="52" height="52" class="key trans"/>
<text x="0" y="0" class="key trans tap">▽</text>
</g>
<g transform="translate(295, 224) rotate(30.0)" class="key trans keypos-32">
<rect rx="6" ry="6" x="-26" y="-40" width="52" height="80" class="key trans"/>
<text x="0" y="0" class="key trans tap">▽</text>
</g>
<g transform="translate(433, 224) rotate(-30.0)" class="key held keypos-33">
<rect rx="6" ry="6" x="-26" y="-40" width="52" height="80" class="key held"/>
</g>
<g transform="translate(498, 213) rotate(-15.0)" class="key trans keypos-34">
<rect rx="6" ry="6" x="-26" y="-26" width="52" height="52" class="key trans"/>
<text x="0" y="0" class="key trans tap">▽</text>
</g>
<g transform="translate(560, 205)" class="key trans keypos-35">
<rect rx="6" ry="6" x="-26" y="-26" width="52" height="52" class="key trans"/>
<text x="0" y="0" class="key trans tap">▽</text>
</g>
<g class="combo combopos-0">
<rect rx="6" ry="6" x="248" y="206" width="28" height="26" class="combo"/>
<use href="#tabler:space" xlink:href="#tabler:space" x="252" y="209" height="20" width="20.0" class="combo tap glyph tabler:space"/>
</g>
</g>
</g>
<g transform="translate(30, 992)" class="layer-ext">
<text x="0" y="28" class="label" id="ext">ext:</text>
<g transform="translate(0, 56)">
<g transform="translate(28, 49)" class="key keypos-0">
<rect rx="6" ry="6" x="-26" y="-26" width="52" height="52" class="key"/>
<text x="0" y="0" class="key tap">F1</text>
</g>
<g transform="translate(84, 35)" class="key keypos-1">
<rect rx="6" ry="6" x="-26" y="-26" width="52" height="52" class="key"/>
<text x="0" y="0" class="key tap">F2</text>
</g>
<g transform="translate(140, 28)" class="key keypos-2">
<rect rx="6" ry="6" x="-26" y="-26" width="52" height="52" class="key"/>
<text x="0" y="0" class="key tap">F3</text>
</g>
<g transform="translate(196, 35)" class="key keypos-3">
<rect rx="6" ry="6" x="-26" y="-26" width="52" height="52" class="key"/>
<text x="0" y="0" class="key tap">F4</text>
</g>
<g transform="translate(252, 42)" class="key keypos-4">
<rect rx="6" ry="6" x="-26" y="-26" width="52" height="52" class="key"/>
<text x="0" y="0" class="key tap">F5</text>
</g>
<g transform="translate(476, 42)" class="key keypos-5">
<rect rx="6" ry="6" x="-26" y="-26" width="52" height="52" class="key"/>
<text x="0" y="0" class="key tap">F6</text>
</g>
<g transform="translate(532, 35)" class="key keypos-6">
<rect rx="6" ry="6" x="-26" y="-26" width="52" height="52" class="key"/>
<text x="0" y="0" class="key tap">F7</text>
</g>
<g transform="translate(588, 28)" class="key keypos-7">
<rect rx="6" ry="6" x="-26" y="-26" width="52" height="52" class="key"/>
<text x="0" y="0" class="key tap">F8</text>
</g>
<g transform="translate(644, 35)" class="key keypos-8">
<rect rx="6" ry="6" x="-26" y="-26" width="52" height="52" class="key"/>
<text x="0" y="0" class="key tap">F9</text>
</g>
<g transform="translate(700, 49)" class="key keypos-9">
<rect rx="6" ry="6" x="-26" y="-26" width="52" height="52" class="key"/>
<text x="0" y="0" class="key tap">F10</text>
</g>
<g transform="translate(28, 105)" class="key keypos-10">
<rect rx="6" ry="6" x="-26" y="-26" width="52" height="52" class="key"/>
<use href="#tabler:progress-down" xlink:href="#tabler:progress-down" x="-10" y="-10" height="20" width="20.0" class="key tap glyph tabler:progress-down"/>
</g>
<g transform="translate(84, 91)" class="key keypos-11">
<rect rx="6" ry="6" x="-26" y="-26" width="52" height="52" class="key"/>
</g>
<g transform="translate(140, 84)" class="key keypos-12">
<rect rx="6" ry="6" x="-26" y="-26" width="52" height="52" class="key"/>
<text x="0" y="0" class="key tap">Alt+-</text>
</g>
<g transform="translate(196, 91)" class="key keypos-13">
<rect rx="6" ry="6" x="-26" y="-26" width="52" height="52" class="key"/>
<text x="0" y="0" class="key tap">
<tspan x="0" dy="-0.6em">Sft+Alt</tspan><tspan x="0" dy="1.2em">+-</tspan>
</text>
</g>
<g transform="translate(252, 98)" class="key keypos-14">
<rect rx="6" ry="6" x="-26" y="-26" width="52" height="52" class="key"/>
<text x="0" y="0" class="key tap">&amp;frown</text>
</g>
<g transform="translate(476, 98)" class="key keypos-15">
<rect rx="6" ry="6" x="-26" y="-26" width="52" height="52" class="key"/>
<text x="0" y="0" class="key tap">&amp;smile</text>
</g>
<g transform="translate(532, 91)" class="key keypos-16">
<rect rx="6" ry="6" x="-26" y="-26" width="52" height="52" class="key"/>
</g>
<g transform="translate(588, 84)" class="key keypos-17">
<rect rx="6" ry="6" x="-26" y="-26" width="52" height="52" class="key"/>
</g>
<g transform="translate(644, 91)" class="key keypos-18">
<rect rx="6" ry="6" x="-26" y="-26" width="52" height="52" class="key"/>
</g>
<g transform="translate(700, 105)" class="key keypos-19">
<rect rx="6" ry="6" x="-26" y="-26" width="52" height="52" class="key"/>
<use href="#tabler:progress-down" xlink:href="#tabler:progress-down" x="-10" y="-10" height="20" width="20.0" class="key tap glyph tabler:progress-down"/>
</g>
<g transform="translate(28, 161)" class="key keypos-20">
<rect rx="6" ry="6" x="-26" y="-26" width="52" height="52" class="key"/>
</g>
<g transform="translate(84, 147)" class="key keypos-21">
<rect rx="6" ry="6" x="-26" y="-26" width="52" height="52" class="key"/>
</g>
<g transform="translate(140, 140)" class="key keypos-22">
<rect rx="6" ry="6" x="-26" y="-26" width="52" height="52" class="key"/>
</g>
<g transform="translate(196, 147)" class="key keypos-23">
<rect rx="6" ry="6" x="-26" y="-26" width="52" height="52" class="key"/>
</g>
<g transform="translate(252, 154)" class="key keypos-24">
<rect rx="6" ry="6" x="-26" y="-26" width="52" height="52" class="key"/>
</g>
<g transform="translate(476, 154)" class="key keypos-25">
<rect rx="6" ry="6" x="-26" y="-26" width="52" height="52" class="key"/>
</g>
<g transform="translate(532, 147)" class="key keypos-26">
<rect rx="6" ry="6" x="-26" y="-26" width="52" height="52" class="key"/>
</g>
<g transform="translate(588, 140)" class="key keypos-27">
<rect rx="6" ry="6" x="-26" y="-26" width="52" height="52" class="key"/>
<text x="0" y="0" class="key tap">&amp;r_arr</text>
</g>
<g transform="translate(644, 147)" class="key keypos-28">
<rect rx="6" ry="6" x="-26" y="-26" width="52" height="52" class="key"/>
<text x="0" y="0" class="key tap"><tspan style="font-size: 70%">&amp;r_dbl_arr</tspan></text>
</g>
<g transform="translate(700, 161)" class="key keypos-29">
<rect rx="6" ry="6" x="-26" y="-26" width="52" height="52" class="key"/>
</g>
<g transform="translate(168, 205)" class="key trans keypos-30">
<rect rx="6" ry="6" x="-26" y="-26" width="52" height="52" class="key trans"/>
<text x="0" y="0" class="key trans tap">▽</text>
</g>
<g transform="translate(230, 213) rotate(15.0)" class="key trans keypos-31">
<rect rx="6" ry="6" x="-26" y="-26" width="52" height="52" class="key trans"/>
<text x="0" y="0" class="key trans tap">▽</text>
</g>
<g transform="translate(295, 224) rotate(30.0)" class="key held keypos-32">
<rect rx="6" ry="6" x="-26" y="-40" width="52" height="80" class="key held"/>
</g>
<g transform="translate(433, 224) rotate(-30.0)" class="key held keypos-33">
<rect rx="6" ry="6" x="-26" y="-40" width="52" height="80" class="key held"/>
</g>
<g transform="translate(498, 213) rotate(-15.0)" class="key trans keypos-34">
<rect rx="6" ry="6" x="-26" y="-26" width="52" height="52" class="key trans"/>
<text x="0" y="0" class="key trans tap">▽</text>
</g>
<g transform="translate(560, 205)" class="key trans keypos-35">
<rect rx="6" ry="6" x="-26" y="-26" width="52" height="52" class="key trans"/>
<text x="0" y="0" class="key trans tap">▽</text>
</g>
<g class="combo combopos-0">
<rect rx="6" ry="6" x="248" y="206" width="28" height="26" class="combo"/>
<use href="#tabler:space" xlink:href="#tabler:space" x="252" y="209" height="20" width="20.0" class="combo tap glyph tabler:space"/>
</g>
</g>
</g>
</svg>
